# xmcd
#
# Track frame offsets:
#	150
#	17858
#	31388
#	46920
#	63083
#	84118
#	93981
#	108933
#	120389
#	133128
#
# Disc length: 1961 seconds
#
# Revision: 1
# Processed by: cddbd v1.5.2PL0 Copyright (c) Steve Scherf et al.
# Submitted via: audiograbber 1.83.01
#
DISCID=7207a70a
DTITLE=San2 and Sebastian Schwarzenberger - Absolutely Barefoot
DYEAR=2013
DGENRE=Blues
TTITLE0=Perpetual Blues Machine
TTITLE1=Heading Home
TTITLE2=Just amazing
TTITLE3=Sweet Home Chicago
TTITLE4=Hoodoo Man Blues
TTITLE5=Barefootin´ again
TTITLE6=Hallelujah I love her so
TTITLE7=Big Yellow Taxi
TTITLE8=Everytime
TTITLE9=This sweet song ( Oh Baby where do we go
EXTD=
EXTT0=
EXTT1=
EXTT2=
EXTT3=
EXTT4=
EXTT5=
EXTT6=
EXTT7=
EXTT8=
EXTT9=
PLAYORDER=
